<?xml version="1.0" encoding="iso-8859-1"?>
<!-- Uploaded to: SVG Repo, www.svgrepo.com, Generator: SVG Repo Mixer Tools -->
<!DOCTYPE svg PUBLIC "-//W3C//DTD SVG 1.1//EN" "http://www.w3.org/Graphics/SVG/1.1/DTD/svg11.dtd">
<svg fill="#000000" version="1.1" id="Capa_1" xmlns="http://www.w3.org/2000/svg" xmlns:xlink="http://www.w3.org/1999/xlink" 
	 width="800px" height="800px" viewBox="0 0 746.184 746.184"
	 xml:space="preserve">
<g>
	<g>
		<g>
			<path d="M370.347,413.647L0,216.621V159.64c0-28.453,23.144-51.602,51.591-51.602h642.854c13.781,0,26.738,5.367,36.481,15.112
				c9.743,9.746,15.109,22.705,15.108,36.49v51.625L370.347,413.647z M19.794,204.73l350.494,186.464l355.952-191.75V159.64
				c0-8.499-3.308-16.487-9.312-22.494c-6.004-6.006-13.989-9.313-22.482-9.313H51.591c-17.533,0-31.796,14.269-31.796,31.807
				L19.794,204.73L19.794,204.73z"/>
		</g>
		<g>
			<path d="M694.592,638.146H52.559c-28.448,0-51.592-23.145-51.592-51.592v-38.896l279.607-141.262l89.427,38.904l89.663-39.02
				l286.52,141.123v39.15C746.184,615.001,723.039,638.146,694.592,638.146z M20.762,559.833v26.721
				c0,17.531,14.264,31.797,31.797,31.797h642.033c17.533,0,31.797-14.264,31.797-31.797V559.72L459.149,428.093l-89.147,38.795
				l-88.8-38.633L20.762,559.833z"/>
		</g>
		<g>
			<path d="M0.42,517.946V240.653L265.8,388.642L0.42,517.946z M20.215,274.356v211.926l202.82-98.824L20.215,274.356z"/>
		</g>
		<g>
			<path d="M745.523,518.161L487.646,388.638l257.879-148.239v277.762H745.523z M529.41,387.462l196.318,98.604V274.61
				L529.41,387.462z"/>
		</g>
	</g>
</g>
</svg>