<svg width="35" height="24" viewBox="0 0 35 24" fill="none" xmlns="http://www.w3.org/2000/svg">
<path d="M13.9205 17.0649V6.93507L23.0682 12.0002L13.9205 17.0649ZM34.2686 3.74768C33.8661 2.27245 32.6801 1.11077 31.1743 0.716516C28.4449 0 17.5 0 17.5 0C17.5 0 6.5552 0 3.82572 0.716516C2.31986 1.11077 1.13383 2.27245 0.731367 3.74768C0 6.42141 0 12 0 12C0 12 0 17.5785 0.731367 20.2523C1.13383 21.7275 2.31986 22.8892 3.82572 23.2836C6.5552 24 17.5 24 17.5 24C17.5 24 28.4449 24 31.1743 23.2836C32.6801 22.8892 33.8661 21.7275 34.2686 20.2523C35 17.5785 35 12 35 12C35 12 35 6.42141 34.2686 3.74768Z" fill="#6A6A6A"/>
</svg>
